<?xml version="1.0" encoding="UTF-8" standalone="no"?>
<!-- Generator: Adobe Illustrator 19.2.1, SVG Export Plug-In . SVG Version: 6.00 Build 0)  -->

<svg
   xmlns:dc="http://purl.org/dc/elements/1.1/"
   xmlns:cc="http://creativecommons.org/ns#"
   xmlns:rdf="http://www.w3.org/1999/02/22-rdf-syntax-ns#"
   xmlns:svg="http://www.w3.org/2000/svg"
   xmlns="http://www.w3.org/2000/svg"
   xmlns:sodipodi="http://sodipodi.sourceforge.net/DTD/sodipodi-0.dtd"
   xmlns:inkscape="http://www.inkscape.org/namespaces/inkscape"
   version="1.1"
   id="Layer_1"
   x="0px"
   y="0px"
   viewBox="0 0 512.14886 70.699997"
   xml:space="preserve"
   inkscape:version="0.91 r13725"
   sodipodi:docname="sticker-mule.svg"
   width="512.14886"
   height="70.699997"><metadata
     id="metadata9346"><rdf:RDF><cc:Work
         rdf:about=""><dc:format>image/svg+xml</dc:format><dc:type
           rdf:resource="http://purl.org/dc/dcmitype/StillImage" /><dc:title></dc:title></cc:Work></rdf:RDF></metadata><defs
     id="defs9344" /><sodipodi:namedview
     pagecolor="#ffffff"
     bordercolor="#666666"
     borderopacity="1"
     objecttolerance="10"
     gridtolerance="10"
     guidetolerance="10"
     inkscape:pageopacity="0"
     inkscape:pageshadow="2"
     inkscape:window-width="3070"
     inkscape:window-height="1752"
     id="namedview9342"
     showgrid="false"
     fit-margin-top="0"
     fit-margin-left="0"
     fit-margin-right="0"
     fit-margin-bottom="0"
     inkscape:zoom="3.7685843"
     inkscape:cx="255.94886"
     inkscape:cy="38.5"
     inkscape:window-x="130"
     inkscape:window-y="48"
     inkscape:window-maximized="1"
     inkscape:current-layer="Layer_1" /><style
     type="text/css"
     id="style9311">
	.Arched_x0020_Green{fill:url(#SVGID_1_);stroke:#FFFFFF;stroke-width:0.25;stroke-miterlimit:1;}
	.st0{fill:#4E2817;}
	.st1{fill-rule:evenodd;clip-rule:evenodd;fill:#4E2817;}
	.st2{fill:#F26922;}
</style><linearGradient
     id="SVGID_1_"
     gradientUnits="userSpaceOnUse"
     x1="330.30688"
     y1="115.7228"
     x2="331.01401"
     y2="115.0157"><stop
       offset="0"
       style="stop-color:#1EAB4B"
       id="stop9314" /><stop
       offset="0.9831"
       style="stop-color:#19361A"
       id="stop9316" /></linearGradient><path
     class="st0"
     d="M 102.44886,65.8 C 95.248863,65.8 88.648863,65 82.848863,59.2 l 7.5,-7.5 c 3.8,3.8 8.7,4.3 12.299997,4.3 4,0 8.1,-1.3 8.1,-4.8 0,-2.3 -1.2,-3.9 -4.9,-4.2 l -7.199997,-0.7 c -8.3,-0.8 -13.4,-4.4 -13.4,-12.9 0,-9.5 8.4,-14.7 17.799997,-14.7 7.2,0 13.2,1.2 17.6,5.4 l -7.1,7.2 c -2.7,-2.4 -6.7,-3.1 -10.7,-3.1 -4.599997,0 -6.499997,2.1 -6.499997,4.4 0,1.7 0.7,3.6 4.799997,4 l 7.2,0.7 c 9.1,0.9 13.7,5.7 13.7,13.5 0,10.2 -8.7,15 -19.6,15 z"
     id="path9318"
     inkscape:connector-curvature="0"
     style="fill:#4e2817" /><path
     class="st0"
     d="m 142.04886,65.3 c -9.4,0 -13.3,-6.6 -13.3,-13.2 l 0,-22.8 -4.9,0 0,-8.7 4.9,0 0,-13.6 11.5,0 0,13.6 8.1,0 0,8.7 -8.1,0 0,22.1 c 0,2.6 1.2,4.2 4,4.2 l 4.2,0 0,9.7 -6.4,0 z"
     id="path9320"
     inkscape:connector-curvature="0"
     style="fill:#4e2817" /><path
     class="st0"
     d="m 153.44886,11.4 0,-9.4 11.8,0 0,9.4 -11.8,0 z m 0.2,53.9 0,-46 11.5,0 0,46 -11.5,0 z"
     id="path9322"
     inkscape:connector-curvature="0"
     style="fill:#4e2817" /><path
     class="st0"
     d="m 191.04886,65.8 c -9.2,0 -20.6,-4.9 -20.6,-23.6 0,-18.6 11.4,-23.5 20.6,-23.5 6.4,0 11.1,1.9 15.2,6.2 l -7.8,7.8 c -2.4,-2.6 -4.4,-3.6 -7.4,-3.6 -2.7,0 -4.9,1 -6.5,3 -1.8,2.2 -2.6,5.3 -2.6,10.2 0,4.9 0.8,8 2.6,10.3 1.7,2 3.8,3 6.5,3 3,0 5,-1.1 7.4,-3.6 l 7.8,7.7 c -4.1,4.1 -8.8,6.1 -15.2,6.1 z"
     id="path9324"
     inkscape:connector-curvature="0"
     style="fill:#4e2817" /><path
     class="st0"
     d="m 237.94886,65.3 -11.3,-19.2 -4.9,5.5 0,13.7 -11.5,0 0,-62.9 11.5,0 0,35.7 15.3,-18.8 13.9,0 -16.4,18.6 17.7,27.5 -14.3,0 z"
     id="path9326"
     inkscape:connector-curvature="0"
     style="fill:#4e2817" /><path
     class="st0"
     d="m 261.74886,45.8 c 0,5.9 3.6,10.2 10.1,10.2 5,0 7.5,-1.4 10.4,-4.3 l 7,6.8 c -4.7,4.7 -9.2,7.2 -17.5,7.2 -10.9,0 -21.3,-4.9 -21.3,-23.6 0,-15 8.1,-23.5 20.1,-23.5 12.8,0 20.1,9.4 20.1,22 l 0,5.1 -28.9,0 z m 16.5,-12.8 c -1.2,-2.7 -3.8,-4.8 -7.7,-4.8 -3.9,0 -6.5,2 -7.7,4.8 -0.7,1.7 -1,2.9 -1.1,4.9 l 17.5,0 c -0.1,-2 -0.3,-3.2 -1,-4.9 z"
     id="path9328"
     inkscape:connector-curvature="0"
     style="fill:#4e2817" /><path
     class="st0"
     d="m 321.04886,31.8 c -1.8,-1.8 -3.3,-2.7 -6.1,-2.7 -3.5,0 -7.4,2.7 -7.4,8.5 l 0,27.7 -11.5,0 0,-46 11.2,0 0,4.4 c 2.2,-2.7 6.6,-4.9 11.6,-4.9 4.5,0 7.7,1.1 10.9,4.3 l -8.7,8.7 z"
     id="path9330"
     inkscape:connector-curvature="0"
     style="fill:#4e2817" /><path
     class="st1"
     d="m 47.448863,70.4 c -0.7,0.3 -1.6,0.2 -2.5,0.3 -0.8,0 -1.9,0 -2.4,-0.4 -0.3,-0.2 -0.3,-0.7 -0.3,-1 0,-0.3 0.1,-0.8 0.1,-1.1 0.1,-0.4 0.2,-1 0,-1.3 -0.2,-0.3 -0.9,-0.2 -1.3,-0.4 -0.4,-0.2 -0.5,-0.8 -0.6,-1.4 0,-0.2 -0.2,-0.4 -0.2,-0.5 -0.1,-0.9 0.2,-2.2 0.4,-3.1 0.2,-1 0.5,-1.9 0.7,-2.9 0.3,-1.4 0.3,-3 0.2,-4.5 0,-0.8 -0.2,-1.4 0,-2 0.1,-0.6 0.4,-1.1 0.5,-1.7 0,-0.2 0,-0.4 0,-0.6 0,-0.2 0.1,-0.3 0.1,-0.5 0,-0.4 -0.1,-0.9 -0.1,-1.4 -0.1,-1.3 0,-3.2 0.1,-4.3 0,-0.4 0.2,-0.8 -0.1,-1 -1.4,0 -2.6,0.2 -3.9,0.4 -3.4,0.4 -7.8,0.5 -11.1,-0.2 -0.3,-0.1 -0.6,-0.1 -0.9,-0.1 -2.4,-0.5 -4.5,-1.6 -6.2,-2.9 -0.3,-0.2 -0.6,-0.4 -0.9,-0.7 -0.3,-0.2 -0.6,-0.5 -0.9,-0.7 -1.3,-0.6 -3.1,0.1 -3.7,1 -0.2,0.3 -0.4,0.8 -0.6,1.2 -0.2,0.4 -0.4,0.8 -0.5,1.2 -0.9,2 -1.9,4 -2.8,6 -0.5,1.2 -1.0999998,2.5 -1.4999998,3.8 -0.8,2.8 -0.1,6.5 0.6,9.2 0.1,0.2 0.2,0.5 0.3,0.8 0.1999998,0.6 0.5999998,1.5 1.0999998,1.9 0.3,0.2 0.7,0.4 1,0.6 0.4,0.3 0.6,0.9 0.9,1.5 0.1,0.2 0.3,0.5 0.4,0.8 0.3,0.6 0.5,1.1 -0.2,1.5 -0.5,0.3 -1.3,0.3 -2,0.4 -0.3,0.1 -0.2,0.5 -0.4,0.7 -0.1,0.1 -0.6,0.3 -0.7999998,0.4 -0.9,0.3 -2.5,0.3 -3.2,0 -0.4,-0.1 -0.8,-0.4 -0.9,-0.7 -0.2,-0.6 0.3,-1.3 -0.1,-1.7 -0.2,-0.2 -0.6,-0.2 -0.9,-0.3 -0.5,-0.2 -0.9,-0.7 -1.2,-1.2 -0.5,-1.4 -0.2,-3.5 -0.3,-5.2 0,-0.5 -0.1,-1 -0.1,-1.6 0,-1 -0.3,-2 -0.4,-3 -0.1,-0.5 -0.2,-0.9 -0.3,-1.3 -0.2,-0.7 -0.3,-1.5 -0.5,-2.2 -0.2,-0.8 -0.2,-1.6 0,-2.2 0.1,-0.2 0.3,-0.4 0.4,-0.6 0.2,-0.4 0.2,-0.8 0.2,-1.2 -0.1,-0.2 -0.6,0 -0.7,-0.2 -0.3,-2.2 -0.6,-4.3 -0.8,-6.6 -0.1,-0.8 -0.1,-1.5 -0.1,-2.3 -0.10000004,-1.5 0,-3.1 -0.20000004,-4.6 -0.1,-0.7 -0.2,-1.4 -0.3,-2.1 -0.3,-2 -0.8,-4.5 -0.4,-6.6 0.3,-1.3 0.7,-2.4 1.50000004,-3.4 0.5,-0.7 1.1,-1.3 1.7,-2 0.6,-0.6 1.3,-1.2 2,-1.7 0.5,-0.3 1,-0.7 1.5,-1 1.1,-0.5 2.6,-1 4.1999998,-1.1 1.6,-0.1 3.4,-0.1 4.9,0.2 1.5,0.3 3,0.5 4.5,0.8 1.4,0.3 2.8,0.7 4.2,1 0.2,0 0.3,0.2 0.5,0.2 0.4,0.1 0.9,0.1 1.4,0.3 1.3,0.3 2.9,0.5 4.5,0.5 1.7,0 3.2,0 4.6,-0.4 0.2,-0.1 0.4,-0.2 0.6,-0.2 0.2,-0.1 0.5,-0.1 0.7,-0.1 0.1,0 0.3,-0.2 0.4,-0.3 0.8,-0.4 1.5,-0.8 2.2,-1.3 0.6,-0.4 1,-0.7 1.8,-1 0.3,-0.1 0.7,-0.3 1,-0.4 0.7,-0.2 1.5,-0.4 2,-0.8 0.9,-0.5 1.5,-1.3 2.2,-2 0.7,-0.6 1.5,-1.3 2.3,-1.9 1.6,-1.3 3.2,-2.4 4.7,-3.6 0.8,-0.6 1.6,-1.2 2.5,-1.7 1.7,-1 3.5,-2.1 6,-2.3 1,-0.1 2,-0.1 3,0 0.3,0 0.6,0.2 0.9,0.1 0.3,-0.1 0.5,-0.5 0.6,-0.8 0.4,-0.7 0.6,-1.1 1,-1.9 0.2,-0.5 0.1,-1 0.6,-1 0.5,0 0.4,1.3 0.4,1.8 0,0.6 -0.1,1.4 0,1.8 0.1,0.3 0.5,0.7 0.9,0.7 0.3,0 0.5,-0.2 0.7,-0.4 0.3,-0.2 0.5,-0.2 0.7,-0.4 0.4,-0.3 0.9,-0.8 1.3,-1.2 0.3,-0.3 0.9,-1.2 1.4,-1.1 1,0.1 0,1.6 -0.2,2 -0.5,1.1 -1,2 -1.6,3 -0.2,0.4 -0.8,1 -0.8,1.5 0,0.3 0.3,0.5 0.4,0.9 0.1,0.2 0.1,0.3 0.2,0.5 0.3,0.8 0.6,1.9 0.9,2.8 0.2,0.8 0.4,1.6 0.7,2.3 0.3,0.7 0.7,1.4 1,2.2 0.1,0.2 0.1,0.4 0.2,0.6 0.6,1.6 1.2,3.4 2,5 0.3,0.6 0.7,1.4 0.7,2.3 0,1 -0.5,1.5 -1,2.3 -0.2,0.4 -0.6,1 -1,1.1 -0.3,0.1 -0.6,0 -0.9,0 -0.4,0.1 -0.7,0.3 -1,0.3 -0.9,0.1 -1.8,-0.6 -2,-1.3 -0.1,-0.2 0,-0.5 -0.1,-0.8 -0.2,-1.1 -0.8,-1.6 -1.5,-2.4 -0.5,-0.5 -0.9,-0.8 -1.5,-1.1 -0.9,-0.5 -1.8,-0.7 -2.8,-1.2 -0.3,-0.2 -0.8,-0.4 -1.1,-0.3 -0.5,0.1 -1,0.9 -1.4,1.4 -2.4,3.2 -4.6,6.5 -6.9,9.6 -1.6,2.1 -3.2,4.2 -4.5,6.5 -0.3,0.6 -0.5,1.3 -0.8,2 -0.2,0.7 -0.4,1.4 -0.6,2.2 -0.9,2.6 -1.2,5.8 -2,8.5 -0.1,0.3 -0.1,0.6 -0.2,0.9 -0.4,1.4 -0.8,3 -1.2,4.5 -0.3,1.1 -0.4,2.6 -0.5,4 0,1.4 -0.1,3.3 0.4,4.1 0.3,0.5 1.2,0.6 1.5,1.1 0.2,0.3 0.4,1 0.7,1.4 0.2,0.3 0.7,0.9 0.6,1.4 0,0.3 -0.3,0.6 -0.6,0.7 -0.3,0.1 -0.7,0.1 -1,0.2 0,0.4 0.1,0.8 -0.2,1 z"
     id="path9332"
     inkscape:connector-curvature="0"
     style="clip-rule:evenodd;fill:#4e2817;fill-rule:evenodd" /><path
     class="st2"
     d="m 381.34886,18.7 c -5.7,0 -9.9,1.8 -13.8,5.8 -2.9,-4 -7.1,-5.8 -12.2,-5.8 -4.2,0 -8.5,1.7 -11.5,4.8 l 0,-4.2 -11.2,0 0,46 11.5,0 0,-27.8 c 0,-6.3 4.1,-8.4 7.7,-8.4 3.6,0 7.6,2.1 7.6,8.4 l 0,27.8 11.5,0 0,-28.1 c 0,-6 4.2,-8.1 7.7,-8.1 3.6,0 7.6,2.1 7.6,8.4 l 0,27.8 11.5,0 0,-29.4 c 0,-5 -1.3,-9.4 -5,-13.1 -2.7,-2.6 -6.8,-4.1 -11.4,-4.1 z"
     id="path9334"
     inkscape:connector-curvature="0"
     style="fill:#f26922" /><path
     class="st2"
     d="m 431.24886,47.1 c 0,6.3 -4.1,8.4 -7.7,8.4 -3.6,0 -7.6,-2.1 -7.6,-8.4 l 0,-27.9 -11.5,0 0,29.5 c 0,5 1,9.4 4.7,13.1 2.6,2.6 6.3,4.1 10.9,4.1 4.2,0 8.5,-1.6 11.5,-4.8 l 0,4.2 11.2,0 0,-46 -11.5,0 0,27.8 z"
     id="path9336"
     inkscape:connector-curvature="0"
     style="fill:#f26922" /><path
     class="st2"
     d="m 461.54886,51.4 0,-49 -11.5,0 0,49.7 c 0,6.5 4,13.2 13.4,13.2 l 6.5,0 0,-9.7 -4.4,0 c -2.9,0 -4,-1.4 -4,-4.2 z"
     id="path9338"
     inkscape:connector-curvature="0"
     style="fill:#f26922" /><path
     class="st2"
     d="m 512.14886,40.7 c 0,-12.6 -7.2,-22 -20.1,-22 -11.9,0 -20.1,8.5 -20.1,23.5 0,18.6 10.4,23.6 21.3,23.6 8.3,0 12.8,-2.6 17.5,-7.2 l -7,-6.8 c -2.9,2.9 -5.4,4.3 -10.4,4.3 -6.5,0 -10.1,-4.3 -10.1,-10.2 l 28.8,0 0,-5.2 z m -28.8,-2.7 c 0.1,-2 0.4,-3.3 1.1,-4.9 1.2,-2.7 3.8,-4.8 7.7,-4.8 3.9,0 6.4,2 7.7,4.8 0.7,1.7 1,2.9 1.1,4.9 l -17.6,0 z"
     id="path9340"
     inkscape:connector-curvature="0"
     style="fill:#f26922" /></svg>